<svg width="250" height="250" viewBox="0 0 250 250" fill="none" xmlns="http://www.w3.org/2000/svg">
<rect width="250" height="250" rx="15" fill="#FDF9E0"/>
<mask id="mask0_18_29" style="mask-type:alpha" maskUnits="userSpaceOnUse" x="18" y="18" width="214" height="214">
<circle cx="125" cy="125" r="107" fill="#ACD5CD"/>
</mask>
<g mask="url(#mask0_18_29)">
<circle cx="125" cy="125" r="107" fill="#ACD5CD" fill-opacity="0.75"/>
<rect x="23" y="108.678" width="11.8747" height="11.8747" fill="#7996A5"/>
<rect x="23" y="92.8455" width="11.8747" height="11.8747" fill="#7996A5" fill-opacity="0.9"/>
<rect x="23" y="77.0125" width="11.8747" height="11.8747" fill="#7996A5" fill-opacity="0.8"/>
<rect x="23" y="61.1794" width="11.8747" height="11.8747" fill="#7996A5" fill-opacity="0.5"/>
<rect x="215.125" y="102.591" width="11.8747" height="11.8747" fill="#7996A5" fill-opacity="0.9"/>
<rect x="215.125" y="86.7579" width="11.8747" height="11.8747" fill="#7996A5" fill-opacity="0.8"/>
<rect x="215.125" y="70.9249" width="11.8747" height="11.8747" fill="#7996A5" fill-opacity="0.5"/>
<rect x="58" y="128.831" width="11.8747" height="11.8747" fill="#7996A5"/>
<rect x="58" y="112.998" width="11.8747" height="11.8747" fill="#7996A5"/>
<rect x="58" y="97.165" width="11.8747" height="11.8747" fill="#7996A5"/>
<rect x="58" y="81.332" width="11.8747" height="11.8747" fill="#7996A5"/>
<rect x="58" y="65.499" width="11.8747" height="11.8747" fill="#7996A5" fill-opacity="0.8"/>
<rect x="58" y="49.666" width="11.8747" height="11.8747" fill="#7996A5" fill-opacity="0.7"/>
<rect x="58" y="33.833" width="11.8747" height="11.8747" fill="#7996A5" fill-opacity="0.6"/>
<rect x="58" y="18" width="11.8747" height="11.8747" fill="#7996A5" fill-opacity="0.5"/>
<rect x="184.497" y="145.165" width="11.8747" height="11.8747" fill="#7996A5"/>
<rect x="184.497" y="129.332" width="11.8747" height="11.8747" fill="#7996A5"/>
<rect x="184.497" y="113.499" width="11.8747" height="11.8747" fill="#7996A5" fill-opacity="0.8"/>
<rect x="184.497" y="97.666" width="11.8747" height="11.8747" fill="#7996A5" fill-opacity="0.7"/>
<rect x="184.497" y="81.833" width="11.8747" height="11.8747" fill="#7996A5" fill-opacity="0.6"/>
<rect x="184.497" y="66" width="11.8747" height="11.8747" fill="#7996A5" fill-opacity="0.5"/>
<rect x="88.434" y="160.831" width="11.8747" height="11.8747" fill="#7996A5"/>
<rect x="88.434" y="144.998" width="11.8747" height="11.8747" fill="#7996A5"/>
<rect x="88.434" y="129.165" width="11.8747" height="11.8747" fill="#7996A5"/>
<rect x="88.434" y="113.332" width="11.8747" height="11.8747" fill="#7996A5" fill-opacity="0.9"/>
<rect x="88.434" y="97.499" width="11.8747" height="11.8747" fill="#7996A5" fill-opacity="0.8"/>
<rect x="88.434" y="81.666" width="11.8747" height="11.8747" fill="#7996A5" fill-opacity="0.7"/>
<rect x="88.434" y="65.833" width="11.8747" height="11.8747" fill="#7996A5" fill-opacity="0.6"/>
<rect x="88.434" y="50" width="11.8747" height="11.8747" fill="#7996A5" fill-opacity="0.5"/>
<rect x="152.448" y="120.165" width="11.8747" height="11.8747" fill="#7996A5"/>
<rect x="152.448" y="104.332" width="11.8747" height="11.8747" fill="#7996A5" fill-opacity="0.9"/>
<rect x="152.448" y="88.499" width="11.8747" height="11.8747" fill="#7996A5" fill-opacity="0.8"/>
<rect x="152.448" y="72.666" width="11.8747" height="11.8747" fill="#7996A5" fill-opacity="0.7"/>
<rect x="152.448" y="56.833" width="11.8747" height="11.8747" fill="#7996A5" fill-opacity="0.6"/>
<rect x="152.448" y="41" width="11.8747" height="11.8747" fill="#7996A5" fill-opacity="0.5"/>
<rect x="120" y="144.664" width="11.8747" height="11.8747" fill="#7996A5"/>
<rect x="120" y="128.831" width="11.8747" height="11.8747" fill="#7996A5"/>
<rect x="120" y="112.998" width="11.8747" height="11.8747" fill="#7996A5"/>
<rect x="120" y="97.165" width="11.8747" height="11.8747" fill="#7996A5"/>
<rect x="120" y="81.332" width="11.8747" height="11.8747" fill="#7996A5" fill-opacity="0.9"/>
<rect x="120" y="65.499" width="11.8747" height="11.8747" fill="#7996A5" fill-opacity="0.8"/>
<rect x="120" y="49.666" width="11.8747" height="11.8747" fill="#7996A5" fill-opacity="0.7"/>
<rect x="120" y="33.833" width="11.8747" height="11.8747" fill="#7996A5" fill-opacity="0.4"/>
<rect x="120" y="18" width="11.8747" height="11.8747" fill="#7996A5" fill-opacity="0.3"/>
</g>
<path d="M60.241 187.632C63.313 187.632 65.9583 188.549 68.177 190.384C70.4383 192.176 71.569 195.589 71.569 200.624V220.656C71.569 221.083 71.441 221.424 71.185 221.68C70.9717 221.893 70.6517 222 70.225 222H66.385C65.9583 222 65.617 221.893 65.361 221.68C65.1477 221.424 65.041 221.083 65.041 220.656V201.712C65.041 199.408 64.529 197.531 63.505 196.08C62.481 194.587 61.0943 193.84 59.345 193.84C57.809 193.84 56.3583 194.544 54.993 195.952C53.6277 197.317 52.7743 199.451 52.433 202.352V220.656C52.433 221.083 52.305 221.424 52.049 221.68C51.8357 221.893 51.5157 222 51.089 222H46.929C46.5023 222 46.161 221.893 45.905 221.68C45.6917 221.424 45.585 221.083 45.585 220.656V201.712C45.585 199.195 45.0943 197.253 44.113 195.888C43.1317 194.523 41.745 193.84 39.953 193.84C38.9717 193.84 37.969 194.181 36.945 194.864C35.921 195.504 35.0463 196.528 34.321 197.936C33.5957 199.301 33.1477 201.029 32.977 203.12V220.656C32.977 221.083 32.849 221.424 32.593 221.68C32.3797 221.893 32.0597 222 31.633 222H27.537C27.1103 222 26.769 221.893 26.513 221.68C26.2997 221.424 26.193 221.083 26.193 220.656V189.808C26.193 189.381 26.2997 189.061 26.513 188.848C26.769 188.592 27.1103 188.464 27.537 188.464H31.633C32.0597 188.464 32.3797 188.592 32.593 188.848C32.849 189.061 32.977 189.381 32.977 189.808V189.936C32.977 190.619 33.1263 190.96 33.425 190.96C33.7237 190.96 34.0223 190.768 34.321 190.384C35.2597 189.445 36.305 188.763 37.457 188.336C38.6517 187.867 39.7823 187.632 40.849 187.632C45.1157 187.632 48.209 189.061 50.129 191.92C50.385 192.389 50.6837 192.624 51.025 192.624C51.281 192.624 51.537 192.475 51.793 192.176C54.225 189.147 57.041 187.632 60.241 187.632ZM112.08 206.064C112.08 206.661 111.632 206.96 110.736 206.96H87.9515C87.4822 206.96 87.1408 207.088 86.9275 207.344C86.7142 207.6 86.6288 207.941 86.6715 208.368C87.1408 210.928 88.1222 212.997 89.6155 214.576C91.1515 216.155 93.2422 216.944 95.8875 216.944C97.8928 216.944 99.4928 216.581 100.688 215.856C101.882 215.088 102.928 213.851 103.824 212.144C104.165 211.547 104.57 211.248 105.04 211.248C105.168 211.248 105.36 211.291 105.616 211.376L109.456 212.592C110.096 212.763 110.416 213.125 110.416 213.68C110.416 213.979 110.373 214.192 110.288 214.32C109.093 216.837 107.301 218.885 104.912 220.464C102.565 222.043 99.5568 222.832 95.8875 222.832C91.7488 222.832 88.4848 221.872 86.0955 219.952C83.7062 217.989 82.0422 215.685 81.1035 213.04C80.2075 210.352 79.7595 207.749 79.7595 205.232C79.7595 202.715 80.2075 200.133 81.1035 197.488C82.0422 194.8 83.7062 192.496 86.0955 190.576C88.4848 188.613 91.7488 187.632 95.8875 187.632C100.026 187.632 103.29 188.613 105.68 190.576C108.112 192.496 109.776 194.8 110.672 197.488C111.61 200.133 112.08 202.715 112.08 205.232V206.064ZM95.8875 193.52C93.6262 193.52 91.7702 194.117 90.3195 195.312C88.8688 196.507 87.8235 198.107 87.1835 200.112C87.1408 200.24 87.1195 200.389 87.1195 200.56C87.1195 201.243 87.5248 201.584 88.3355 201.584H103.504C103.973 201.584 104.314 201.477 104.528 201.264C104.784 201.008 104.848 200.688 104.72 200.304C104.122 198.256 103.077 196.613 101.584 195.376C100.133 194.139 98.2342 193.52 95.8875 193.52ZM127.166 220.656C127.166 221.083 127.038 221.424 126.782 221.68C126.569 221.893 126.249 222 125.822 222H121.662C121.235 222 120.894 221.893 120.638 221.68C120.425 221.424 120.318 221.083 120.318 220.656V176.432C120.318 176.005 120.425 175.685 120.638 175.472C120.894 175.216 121.235 175.088 121.662 175.088H125.822C126.249 175.088 126.569 175.216 126.782 175.472C127.038 175.685 127.166 176.005 127.166 176.432V220.656ZM152.462 222.832C148.195 222.832 144.825 221.872 142.35 219.952C139.875 217.989 138.169 215.685 137.23 213.04C136.291 210.352 135.822 207.749 135.822 205.232C135.822 202.715 136.291 200.133 137.23 197.488C138.169 194.8 139.875 192.496 142.35 190.576C144.825 188.613 148.195 187.632 152.462 187.632C156.686 187.632 160.035 188.613 162.51 190.576C164.985 192.496 166.691 194.8 167.63 197.488C168.611 200.133 169.102 202.715 169.102 205.232C169.102 207.749 168.611 210.352 167.63 213.04C166.691 215.685 164.985 217.989 162.51 219.952C160.035 221.872 156.686 222.832 152.462 222.832ZM152.462 216.944C155.918 216.944 158.478 215.813 160.142 213.552C161.806 211.291 162.638 208.517 162.638 205.232C162.638 201.947 161.806 199.173 160.142 196.912C158.478 194.651 155.918 193.52 152.462 193.52C149.006 193.52 146.446 194.651 144.782 196.912C143.118 199.173 142.286 201.947 142.286 205.232C142.286 208.517 143.118 211.291 144.782 213.552C146.446 215.813 149.006 216.944 152.462 216.944ZM199.132 190.32C199.43 190.619 199.729 190.768 200.028 190.768C200.454 190.768 200.668 190.405 200.668 189.68V176.432C200.668 176.005 200.774 175.685 200.988 175.472C201.244 175.216 201.585 175.088 202.012 175.088H205.852C206.278 175.088 206.598 175.216 206.812 175.472C207.068 175.685 207.196 176.005 207.196 176.432V220.656C207.196 221.083 207.068 221.424 206.812 221.68C206.598 221.893 206.278 222 205.852 222H202.012C201.585 222 201.244 221.893 200.988 221.68C200.774 221.424 200.668 221.083 200.668 220.656C200.668 220.016 200.476 219.696 200.092 219.696C199.793 219.696 199.473 219.845 199.132 220.144C196.913 221.936 194.118 222.832 190.748 222.832C186.694 222.832 183.516 221.872 181.212 219.952C178.95 217.989 177.414 215.685 176.604 213.04C175.793 210.395 175.388 207.792 175.388 205.232C175.388 202.672 175.793 200.069 176.604 197.424C177.414 194.779 178.95 192.496 181.212 190.576C183.516 188.613 186.694 187.632 190.748 187.632C194.118 187.632 196.913 188.528 199.132 190.32ZM191.452 216.944C194.694 216.944 197.041 215.835 198.492 213.616C199.985 211.355 200.732 208.56 200.732 205.232C200.732 201.904 199.985 199.131 198.492 196.912C197.041 194.651 194.694 193.52 191.452 193.52C188.166 193.52 185.734 194.651 184.156 196.912C182.577 199.173 181.788 201.947 181.788 205.232C181.788 208.517 182.577 211.291 184.156 213.552C185.734 215.813 188.166 216.944 191.452 216.944ZM221.52 181.808C220.368 181.808 219.386 181.403 218.576 180.592C217.765 179.781 217.36 178.8 217.36 177.648C217.36 176.496 217.765 175.515 218.576 174.704C219.386 173.893 220.368 173.488 221.52 173.488C222.672 173.488 223.653 173.893 224.464 174.704C225.274 175.515 225.68 176.496 225.68 177.648C225.68 178.8 225.274 179.781 224.464 180.592C223.653 181.403 222.672 181.808 221.52 181.808ZM224.912 220.656C224.912 221.083 224.784 221.424 224.528 221.68C224.314 221.893 223.994 222 223.568 222H219.408C218.981 222 218.64 221.893 218.384 221.68C218.17 221.424 218.064 221.083 218.064 220.656V189.808C218.064 189.381 218.17 189.061 218.384 188.848C218.64 188.592 218.981 188.464 219.408 188.464H223.568C223.994 188.464 224.314 188.592 224.528 188.848C224.784 189.061 224.912 189.381 224.912 189.808V220.656Z" fill="#05608F"/>
</svg>
