<svg width="162" height="143" viewBox="0 0 162 143" fill="none" xmlns="http://www.w3.org/2000/svg">
<g filter="url(#filter0_f_152_241)">
<path d="M21.4345 92.1693C62.7986 83.518 70.9271 96.4363 73.249 133.842C74.9072 85.4262 92.5956 87.9596 133.869 109.698C89.597 80.5407 104.325 72.5919 144.706 61.4108C100.144 61.7036 96.5275 46.6703 104.067 10.4775C86.7484 41.865 75.5106 41.6772 50.8976 10.4775C70.4716 51.128 70.5873 66.6239 15 45.8663C67.5084 72.0114 76.4921 83.3712 21.4345 92.1693Z" stroke="#7996A5" stroke-width="8"/>
</g>
<path d="M40.2131 61.9975C42.1331 61.9975 43.7865 62.5709 45.1731 63.7175C46.5865 64.8375 47.2931 66.9709 47.2931 70.1175V82.6375C47.2931 82.9042 47.2131 83.1175 47.0531 83.2775C46.9198 83.4109 46.7198 83.4775 46.4531 83.4775H44.0531C43.7865 83.4775 43.5731 83.4109 43.4131 83.2775C43.2798 83.1175 43.2131 82.9042 43.2131 82.6375V70.7975C43.2131 69.3575 42.8931 68.1842 42.2531 67.2775C41.6131 66.3442 40.7465 65.8775 39.6531 65.8775C38.6931 65.8775 37.7865 66.3175 36.9331 67.1975C36.0798 68.0509 35.5465 69.3842 35.3331 71.1975V82.6375C35.3331 82.9042 35.2531 83.1175 35.0931 83.2775C34.9598 83.4109 34.7598 83.4775 34.4931 83.4775H31.8931C31.6265 83.4775 31.4131 83.4109 31.2531 83.2775C31.1198 83.1175 31.0531 82.9042 31.0531 82.6375V70.7975C31.0531 69.2242 30.7465 68.0109 30.1331 67.1575C29.5198 66.3042 28.6531 65.8775 27.5331 65.8775C26.9198 65.8775 26.2931 66.0909 25.6531 66.5175C25.0131 66.9175 24.4665 67.5575 24.0131 68.4375C23.5598 69.2909 23.2798 70.3709 23.1731 71.6775V82.6375C23.1731 82.9042 23.0931 83.1175 22.9331 83.2775C22.7998 83.4109 22.5998 83.4775 22.3331 83.4775H19.7731C19.5065 83.4775 19.2931 83.4109 19.1331 83.2775C18.9998 83.1175 18.9331 82.9042 18.9331 82.6375V63.3575C18.9331 63.0909 18.9998 62.8909 19.1331 62.7575C19.2931 62.5975 19.5065 62.5175 19.7731 62.5175H22.3331C22.5998 62.5175 22.7998 62.5975 22.9331 62.7575C23.0931 62.8909 23.1731 63.0909 23.1731 63.3575V63.4375C23.1731 63.8642 23.2665 64.0775 23.4531 64.0775C23.6398 64.0775 23.8265 63.9575 24.0131 63.7175C24.5998 63.1309 25.2531 62.7042 25.9731 62.4375C26.7198 62.1442 27.4265 61.9975 28.0931 61.9975C30.7598 61.9975 32.6931 62.8909 33.8931 64.6775C34.0531 64.9709 34.2398 65.1175 34.4531 65.1175C34.6131 65.1175 34.7731 65.0242 34.9331 64.8375C36.4531 62.9442 38.2131 61.9975 40.2131 61.9975ZM72.6122 73.5175C72.6122 73.8909 72.3322 74.0775 71.7722 74.0775H57.5322C57.2389 74.0775 57.0255 74.1575 56.8922 74.3175C56.7589 74.4775 56.7055 74.6909 56.7322 74.9575C57.0255 76.5575 57.6389 77.8509 58.5722 78.8375C59.5322 79.8242 60.8389 80.3175 62.4922 80.3175C63.7455 80.3175 64.7455 80.0909 65.4922 79.6375C66.2389 79.1575 66.8922 78.3842 67.4522 77.3175C67.6655 76.9442 67.9189 76.7575 68.2122 76.7575C68.2922 76.7575 68.4122 76.7842 68.5722 76.8375L70.9722 77.5975C71.3722 77.7042 71.5722 77.9309 71.5722 78.2775C71.5722 78.4642 71.5455 78.5975 71.4922 78.6775C70.7455 80.2509 69.6255 81.5309 68.1322 82.5175C66.6655 83.5042 64.7855 83.9975 62.4922 83.9975C59.9055 83.9975 57.8655 83.3975 56.3722 82.1975C54.8789 80.9709 53.8389 79.5309 53.2522 77.8775C52.6922 76.1975 52.4122 74.5709 52.4122 72.9975C52.4122 71.4242 52.6922 69.8109 53.2522 68.1575C53.8389 66.4775 54.8789 65.0375 56.3722 63.8375C57.8655 62.6109 59.9055 61.9975 62.4922 61.9975C65.0789 61.9975 67.1189 62.6109 68.6122 63.8375C70.1322 65.0375 71.1722 66.4775 71.7322 68.1575C72.3189 69.8109 72.6122 71.4242 72.6122 72.9975V73.5175ZM62.4922 65.6775C61.0789 65.6775 59.9189 66.0509 59.0122 66.7975C58.1055 67.5442 57.4522 68.5442 57.0522 69.7975C57.0255 69.8775 57.0122 69.9709 57.0122 70.0775C57.0122 70.5042 57.2655 70.7175 57.7722 70.7175H67.2522C67.5455 70.7175 67.7589 70.6509 67.8922 70.5175C68.0522 70.3575 68.0922 70.1575 68.0122 69.9175C67.6389 68.6375 66.9855 67.6109 66.0522 66.8375C65.1455 66.0642 63.9589 65.6775 62.4922 65.6775ZM82.0413 82.6375C82.0413 82.9042 81.9613 83.1175 81.8013 83.2775C81.6679 83.4109 81.4679 83.4775 81.2013 83.4775H78.6013C78.3346 83.4775 78.1213 83.4109 77.9613 83.2775C77.8279 83.1175 77.7613 82.9042 77.7613 82.6375V54.9975C77.7613 54.7309 77.8279 54.5309 77.9613 54.3975C78.1213 54.2375 78.3346 54.1575 78.6013 54.1575H81.2013C81.4679 54.1575 81.6679 54.2375 81.8013 54.3975C81.9613 54.5309 82.0413 54.7309 82.0413 54.9975V82.6375ZM97.8513 83.9975C95.1846 83.9975 93.0779 83.3975 91.5313 82.1975C89.9846 80.9709 88.9179 79.5309 88.3313 77.8775C87.7446 76.1975 87.4513 74.5709 87.4513 72.9975C87.4513 71.4242 87.7446 69.8109 88.3313 68.1575C88.9179 66.4775 89.9846 65.0375 91.5313 63.8375C93.0779 62.6109 95.1846 61.9975 97.8513 61.9975C100.491 61.9975 102.585 62.6109 104.131 63.8375C105.678 65.0375 106.745 66.4775 107.331 68.1575C107.945 69.8109 108.251 71.4242 108.251 72.9975C108.251 74.5709 107.945 76.1975 107.331 77.8775C106.745 79.5309 105.678 80.9709 104.131 82.1975C102.585 83.3975 100.491 83.9975 97.8513 83.9975ZM97.8513 80.3175C100.011 80.3175 101.611 79.6109 102.651 78.1975C103.691 76.7842 104.211 75.0509 104.211 72.9975C104.211 70.9442 103.691 69.2109 102.651 67.7975C101.611 66.3842 100.011 65.6775 97.8513 65.6775C95.6913 65.6775 94.0913 66.3842 93.0513 67.7975C92.0113 69.2109 91.4913 70.9442 91.4913 72.9975C91.4913 75.0509 92.0113 76.7842 93.0513 78.1975C94.0913 79.6109 95.6913 80.3175 97.8513 80.3175ZM127.02 63.6775C127.206 63.8642 127.393 63.9575 127.58 63.9575C127.846 63.9575 127.98 63.7309 127.98 63.2775V54.9975C127.98 54.7309 128.046 54.5309 128.18 54.3975C128.34 54.2375 128.553 54.1575 128.82 54.1575H131.22C131.486 54.1575 131.686 54.2375 131.82 54.3975C131.98 54.5309 132.06 54.7309 132.06 54.9975V82.6375C132.06 82.9042 131.98 83.1175 131.82 83.2775C131.686 83.4109 131.486 83.4775 131.22 83.4775H128.82C128.553 83.4775 128.34 83.4109 128.18 83.2775C128.046 83.1175 127.98 82.9042 127.98 82.6375C127.98 82.2375 127.86 82.0375 127.62 82.0375C127.433 82.0375 127.233 82.1309 127.02 82.3175C125.633 83.4375 123.886 83.9975 121.78 83.9975C119.246 83.9975 117.26 83.3975 115.82 82.1975C114.406 80.9709 113.446 79.5309 112.94 77.8775C112.433 76.2242 112.18 74.5975 112.18 72.9975C112.18 71.3975 112.433 69.7709 112.94 68.1175C113.446 66.4642 114.406 65.0375 115.82 63.8375C117.26 62.6109 119.246 61.9975 121.78 61.9975C123.886 61.9975 125.633 62.5575 127.02 63.6775ZM122.22 80.3175C124.246 80.3175 125.713 79.6242 126.62 78.2375C127.553 76.8242 128.02 75.0775 128.02 72.9975C128.02 70.9175 127.553 69.1842 126.62 67.7975C125.713 66.3842 124.246 65.6775 122.22 65.6775C120.166 65.6775 118.646 66.3842 117.66 67.7975C116.673 69.2109 116.18 70.9442 116.18 72.9975C116.18 75.0509 116.673 76.7842 117.66 78.1975C118.646 79.6109 120.166 80.3175 122.22 80.3175ZM141.012 58.3575C140.292 58.3575 139.679 58.1042 139.172 57.5975C138.666 57.0909 138.412 56.4775 138.412 55.7575C138.412 55.0375 138.666 54.4242 139.172 53.9175C139.679 53.4109 140.292 53.1575 141.012 53.1575C141.732 53.1575 142.346 53.4109 142.852 53.9175C143.359 54.4242 143.612 55.0375 143.612 55.7575C143.612 56.4775 143.359 57.0909 142.852 57.5975C142.346 58.1042 141.732 58.3575 141.012 58.3575ZM143.132 82.6375C143.132 82.9042 143.052 83.1175 142.892 83.2775C142.759 83.4109 142.559 83.4775 142.292 83.4775H139.692C139.426 83.4775 139.212 83.4109 139.052 83.2775C138.919 83.1175 138.852 82.9042 138.852 82.6375V63.3575C138.852 63.0909 138.919 62.8909 139.052 62.7575C139.212 62.5975 139.426 62.5175 139.692 62.5175H142.292C142.559 62.5175 142.759 62.5975 142.892 62.7575C143.052 62.8909 143.132 63.0909 143.132 63.3575V82.6375Z" fill="#05608F"/>
<defs>
<filter id="filter0_f_152_241" x="5.21704" y="0" width="148.556" height="142.09" filterUnits="userSpaceOnUse" color-interpolation-filters="sRGB">
<feFlood flood-opacity="0" result="BackgroundImageFix"/>
<feBlend mode="normal" in="SourceGraphic" in2="BackgroundImageFix" result="shape"/>
<feGaussianBlur stdDeviation="4" result="effect1_foregroundBlur_152_241"/>
</filter>
</defs>
</svg>
